# xmcd
#
# Track frame offsets:
#	150
#	17615
#	34542
#	45815
#	57112
#	71265
#	84050
#	99115
#	112308
#	126571
#	137292
#	152333
#	161772
#	177461
#
# Disc length: 2553 seconds
#
# Revision: 1
# Processed by: cddbd v1.5.2PL0 Copyright (c) Steve Scherf et al.
# Submitted via: audiograbber 1.83.01
#
DISCID=9f09f70e
DTITLE=Omer Mathieu - Travelin' man
DYEAR=2007
DGENRE=Country
TTITLE0=Have mercy on the working man
TTITLE1=French song
TTITLE2=Tequila makes her clothes fall off
TTITLE3=I wouldn't change you if I could
TTITLE4=East Coster
TTITLE5=Silver wings
TTITLE6=Margaritaville
TTITLE7=I want to be your man
TTITLE8=Long black train
TTITLE9=Bootin Scootin Boogie
TTITLE10=Sing me back home
TTITLE11=Mamma tried
TTITLE12=Sonny's dream
TTITLE13=Wake up
EXTD=
EXTT0=
EXTT1=
EXTT2=
EXTT3=
EXTT4=
EXTT5=
EXTT6=
EXTT7=
EXTT8=
EXTT9=
EXTT10=
EXTT11=
EXTT12=
EXTT13=
PLAYORDER=
